<svg width="24" height="24" viewBox="0 0 24 24" fill="none" xmlns="http://www.w3.org/2000/svg">
<path d="M1.46973 1.46973C1.76262 1.17683 2.23738 1.17683 2.53027 1.46973L22.5303 21.4697C22.8232 21.7626 22.8232 22.2374 22.5303 22.5303C22.2374 22.8232 21.7626 22.8232 21.4697 22.5303L19.3271 20.3877C18.5836 21.1148 17.6457 21.4412 16.4893 21.5967C15.3384 21.7514 13.8644 21.75 12 21.75C10.1356 21.75 8.66159 21.7514 7.51074 21.5967C6.33844 21.439 5.38991 21.1067 4.6416 20.3584C3.89329 19.6101 3.56096 18.6616 3.40332 17.4893C3.24859 16.3384 3.25 14.8644 3.25 13V7.57129C3.25 7.06107 3.24922 6.74338 3.28027 6.46777C3.34606 5.8844 3.51726 5.33358 3.77344 4.83398L1.46973 2.53027C1.17683 2.23738 1.17683 1.76262 1.46973 1.46973ZM4.91602 5.97656C4.84615 6.1874 4.79623 6.40769 4.77051 6.63574C4.75126 6.80655 4.75 7.02027 4.75 7.57129V13C4.75 14.9068 4.7515 16.2614 4.88965 17.2891C5.02491 18.2952 5.27894 18.8746 5.70215 19.2979C6.12536 19.7211 6.70485 19.9751 7.71094 20.1104C8.73859 20.2485 10.0932 20.25 12 20.25C13.9068 20.25 15.2614 20.2485 16.2891 20.1104C17.2711 19.9783 17.8451 19.7314 18.2656 19.3262L4.91602 5.97656ZM13 0.25C14.2588 0.25 15.3171 1.09665 15.6436 2.25098C16.0323 2.25139 16.2975 2.25383 16.5322 2.28027C18.7341 2.52856 20.4714 4.26593 20.7197 6.46777C20.7508 6.74337 20.75 7.06107 20.75 7.57129V15.0195C20.744 15.4337 20.4034 15.7647 19.9893 15.7588C19.5752 15.7528 19.2441 15.4121 19.25 14.998V7.57129C19.25 7.02027 19.2487 6.80655 19.2295 6.63574C19.0596 5.12928 17.8707 3.94042 16.3643 3.77051C16.2175 3.75398 16.0392 3.75157 15.6426 3.75098C15.3155 4.90424 14.2581 5.75 13 5.75H11C9.74183 5.75 8.68346 4.90437 8.35645 3.75098C7.96054 3.75157 7.78233 3.75399 7.63574 3.77051C7.48252 3.78779 7.33298 3.81606 7.1875 3.85352C6.78638 3.95684 6.37676 3.7146 6.27344 3.31348C6.17042 2.91261 6.41174 2.50384 6.8125 2.40039C7.02549 2.34553 7.24461 2.30544 7.46777 2.28027C7.70229 2.25385 7.9673 2.2514 8.35547 2.25098C8.6818 1.09652 9.74108 0.25 11 0.25H13ZM11 1.75C10.3096 1.75 9.75 2.30964 9.75 3C9.75 3.69036 10.3096 4.25 11 4.25H13C13.6904 4.25 14.25 3.69036 14.25 3C14.25 2.30964 13.6904 1.75 13 1.75H11Z" fill="currentColor"/>
</svg>
