<svg width="24" height="24" viewBox="0 0 24 24" fill="none" xmlns="http://www.w3.org/2000/svg">
<path d="M18.53 2.46948C18.8229 2.76238 18.8229 3.23714 18.53 3.53003L12.53 9.53003C12.2371 9.82285 11.7624 9.8229 11.4695 9.53003L5.46948 3.53003C5.17688 3.23714 5.17675 2.76229 5.46948 2.46948C5.76229 2.17668 6.23711 2.17685 6.53003 2.46948L11.9998 7.93921L17.4695 2.46948C17.7623 2.17668 18.2371 2.17685 18.53 2.46948ZM18.53 20.4695C18.8229 20.7624 18.8229 21.2371 18.53 21.53C18.2371 21.8228 17.7623 21.8229 17.4695 21.53L11.9998 16.0603L6.53003 21.53C6.23713 21.8228 5.76235 21.8229 5.46948 21.53C5.17688 21.2371 5.17675 20.7623 5.46948 20.4695L11.4695 14.4695C11.7623 14.1767 12.2371 14.1769 12.53 14.4695L18.53 20.4695Z" fill="currentColor"/>
</svg>
