<svg width="24" height="24" viewBox="0 0 24 24" fill="none" xmlns="http://www.w3.org/2000/svg">
<path d="M14.7996 3.25037C15.3472 3.25037 15.8035 3.24936 16.1746 3.27967C16.5543 3.3107 16.9107 3.37847 17.2478 3.55017C17.7653 3.81383 18.1863 4.23488 18.45 4.75232C18.6216 5.08941 18.6894 5.4459 18.7205 5.82556C18.7508 6.19664 18.7498 6.65303 18.7498 7.20056L18.7498 13.6752C18.7498 14.1284 18.7543 14.4774 18.6736 14.8138C18.6062 15.0943 18.4952 15.3628 18.3445 15.6088C18.1636 15.9038 17.9131 16.1476 17.5925 16.4681L11.9412 22.1195C11.5374 22.5231 10.9896 22.7503 10.4187 22.7504C8.76548 22.7502 7.72884 20.9642 8.54859 19.5287L10.7078 15.7504L7.18921 15.7504C6.49125 15.7504 5.91787 15.7509 5.4607 15.7103C4.99835 15.6692 4.56418 15.5802 4.17847 15.3431C3.59814 14.9864 3.17074 14.4265 2.97925 13.7728C2.85213 13.3385 2.87975 12.8965 2.96167 12.4398C3.04276 11.988 3.19497 11.4347 3.37866 10.7611L4.63355 6.1615C4.84591 5.38282 4.99616 4.77976 5.35132 4.3197C5.64527 3.93911 6.03378 3.64188 6.47828 3.45837C7.01561 3.23664 7.63691 3.25036 8.4441 3.25037L14.7996 3.25037ZM8.4441 4.75037C7.50089 4.75037 7.24607 4.76441 7.05054 4.84509C6.84856 4.92851 6.67142 5.06373 6.53785 5.23669C6.40882 5.4041 6.32775 5.64701 6.07984 6.55603L4.82593 11.1556C4.63497 11.8558 4.50479 12.3337 4.43823 12.7045C4.37265 13.07 4.38705 13.2438 4.4187 13.3519C4.50577 13.6488 4.7001 13.9028 4.96363 14.0648C5.05959 14.1238 5.22344 14.1833 5.59351 14.2162C5.96872 14.2495 6.46359 14.2504 7.18921 14.2504L11.9998 14.2504C12.2671 14.2504 12.514 14.3932 12.6482 14.6244C12.7821 14.8555 12.7836 15.1405 12.6511 15.3724L9.85132 20.2728C9.60277 20.7084 9.91713 21.2502 10.4187 21.2504C10.5918 21.2503 10.7581 21.1813 10.8806 21.059L16.532 15.4076C16.9028 15.0368 16.9987 14.933 17.0652 14.8246C17.1335 14.713 17.185 14.5914 17.2156 14.4642C17.2453 14.3405 17.2498 14.1996 17.2498 13.6752L17.2498 7.20056C17.2498 6.62833 17.2495 6.24347 17.2253 5.94763C17.2019 5.66081 17.1591 5.52353 17.113 5.43299C16.9932 5.19787 16.8023 5.00691 16.5671 4.88709C16.4766 4.84096 16.3395 4.79824 16.0525 4.77478C15.7566 4.75062 15.3719 4.75037 14.7996 4.75037L8.4441 4.75037ZM20.9998 3.25037C21.414 3.25037 21.7498 3.58616 21.7498 4.00037L21.7498 14.0004C21.7496 14.4144 21.4139 14.7504 20.9998 14.7504C20.5857 14.7503 20.2499 14.4144 20.2498 14.0004L20.2498 4.00037C20.2498 3.58622 20.5856 3.25048 20.9998 3.25037Z" fill="currentColor"/>
</svg>
