<svg width="24" height="24" viewBox="0 0 24 24" fill="none" xmlns="http://www.w3.org/2000/svg">
<path d="M11.75 2C17.1348 2 21.5 6.36522 21.5 11.75C21.5 17.1348 17.1348 21.5 11.75 21.5C6.36522 21.5 2 17.1348 2 11.75C2 9.05782 3.09189 6.61905 4.85547 4.85547C5.14826 4.56267 5.6231 4.56287 5.91602 4.85547C6.20891 5.14836 6.20891 5.62312 5.91602 5.91602C4.42224 7.40979 3.5 9.47162 3.5 11.75C3.5 16.3063 7.19365 20 11.75 20C16.3063 20 20 16.3063 20 11.75C20 7.44651 16.7048 3.91414 12.5 3.53516V5.75C12.5 6.16421 12.1642 6.5 11.75 6.5C11.3358 6.5 11 6.16421 11 5.75V2.75C11 2.33579 11.3358 2 11.75 2Z" fill="#222222"/>
<path d="M8.21973 8.21973C8.51262 7.92683 8.98738 7.92683 9.28027 8.21973L12.2803 11.2197C12.5732 11.5126 12.5732 11.9874 12.2803 12.2803C11.9874 12.5732 11.5126 12.5732 11.2197 12.2803L8.21973 9.28027C7.92683 8.98738 7.92683 8.51262 8.21973 8.21973Z" fill="#222222"/>
</svg>
